<svg width="25" height="24" viewBox="0 0 25 24" fill="none" xmlns="http://www.w3.org/2000/svg">
<path d="M12.625 6.2998C10.425 6.2998 8.625 8.0998 8.625 10.2998C8.625 12.4998 10.425 14.2998 12.625 14.2998C14.825 14.2998 16.625 12.4998 16.625 10.2998C16.625 8.0998 14.825 6.2998 12.625 6.2998ZM12.625 12.2998C11.525 12.2998 10.625 11.3998 10.625 10.2998C10.625 9.1998 11.525 8.2998 12.625 8.2998C13.725 8.2998 14.625 9.1998 14.625 10.2998C14.625 11.3998 13.725 12.2998 12.625 12.2998Z" fill="#00BEDF"/>
<path d="M12.625 0C6.025 0 0.625 5.4 0.625 12C0.625 18.6 6.025 24 12.625 24C19.225 24 24.625 18.6 24.625 12C24.625 5.4 19.225 0 12.625 0ZM12.625 22C10.425 22 8.525 21.3 6.825 20.2C7.525 18.5 9.725 17.4 12.625 17.4C15.525 17.4 17.725 18.5 18.425 20.2C16.725 21.3 14.825 22 12.625 22ZM19.925 18.8C18.725 16.7 16.025 15.3 12.625 15.3C9.125 15.3 6.425 16.7 5.325 18.8C3.625 17 2.625 14.6 2.625 12C2.625 6.5 7.125 2 12.625 2C18.125 2 22.625 6.5 22.625 12C22.625 14.6 21.625 17 19.925 18.8Z" fill="#00BEDF"/>
</svg>
