<svg width="23" height="22" viewBox="0 0 23 22" fill="none" xmlns="http://www.w3.org/2000/svg">
<path fill-rule="evenodd" clip-rule="evenodd" d="M9.77148 16.1465C5.91148 16.1465 2.77148 13.0065 2.77148 9.1465C2.77148 5.2865 5.91148 2.1465 9.77148 2.1465C13.6315 2.1465 16.7715 5.2865 16.7715 9.1465C16.7715 13.0065 13.6315 16.1465 9.77148 16.1465ZM22.4785 20.4395L16.7965 14.7575C18.0295 13.2175 18.7715 11.2685 18.7715 9.1465C18.7715 4.1845 14.7335 0.1465 9.77148 0.1465C4.80948 0.1465 0.771484 4.1845 0.771484 9.1465C0.771484 14.1085 4.80948 18.1465 9.77148 18.1465C11.8935 18.1465 13.8425 17.4045 15.3825 16.1715L21.0645 21.8535L22.4785 20.4395Z" fill="#00BEDF"/>
</svg>
